<svg width="150" height="138" viewBox="0 0 150 138" fill="none" xmlns="http://www.w3.org/2000/svg">
<path d="M69.1555 72.758C67.8182 71.8934 66.0234 72.2622 65.1471 73.582L62.1354 78.1175C61.7014 78.7713 61.0712 78.9427 60.7344 78.9872C60.3976 79.031 59.7432 79.0278 59.1516 78.5088C53.7869 73.8039 46.3225 72.5342 39.6711 75.1948L36.8848 76.3092C35.4031 76.9018 34.6886 78.5676 35.2895 80.0299C35.7975 81.2655 37.0823 81.9569 38.3624 81.7845C39.1904 85.0402 41.166 87.9099 44.0037 89.8813C46.4506 91.5814 49.3185 92.4632 52.2331 92.4632C53.5312 92.4632 54.8386 92.2883 56.1215 91.9328L60.9525 90.5946C62.2457 90.2365 63.1195 89.0478 63.0628 87.7236L62.9174 84.3263C64.5716 83.7861 66.0083 82.7114 66.9792 81.2487L69.991 76.7132C70.867 75.3935 70.4931 73.6226 69.1555 72.758ZM54.5561 86.4317C52.0749 87.1189 49.4437 86.6733 47.3369 85.2097C45.498 83.9321 44.2653 82.0216 43.8609 79.8702C47.8969 78.9602 52.1318 79.9969 55.3041 82.7793C55.8516 83.2595 56.4593 83.6544 57.1056 83.9607L57.1802 85.7052L54.5561 86.4317Z" fill="#0066CC"/>
<path d="M64.506 62.0927C64.6717 62.1206 64.8361 62.1342 64.9985 62.1342C66.3828 62.1342 67.6069 61.1515 67.8488 59.7597L69.779 48.6503C70.0492 47.0953 68.9905 45.6184 67.4145 45.3521C65.8378 45.0855 64.3419 46.1301 64.0717 47.6851L62.1415 58.7944C61.8713 60.3494 62.93 61.826 64.506 62.0927Z" fill="#0066CC"/>
<path d="M140.68 1.90622C134.591 -0.720351 127.703 0.651179 123.131 5.40059L97.7836 31.7333C96.176 33.4041 94.9539 35.3476 94.1509 37.5089L92.8773 40.9331C81.2479 37.5025 68.7524 37.5025 57.1223 40.9331L55.8487 37.5098C55.0454 35.3476 53.8233 33.4041 52.2154 31.7327L26.8687 5.40028C22.2967 0.65118 15.4084 -0.720986 9.31995 1.90622C3.25108 4.52454 -0.394106 10.4249 0.0340769 16.9394C0.822242 28.8741 2.72703 39.9399 5.69471 49.8305C9.40938 62.2091 14.8049 72.7265 21.7289 81.1179C21.2502 82.8545 21.2283 84.7091 21.7076 86.4825L22.6576 89.9968C27.3683 107.426 39.3983 122.145 55.6631 130.38C55.6724 130.384 55.6821 130.387 55.6914 130.392C56.8675 131.051 58.1495 131.561 59.5206 131.891C60.1315 132.038 60.743 132.144 61.3533 132.214C65.0963 135.573 69.8993 137.411 75.0001 137.411C80.102 137.411 84.9059 135.572 88.6492 132.212C89.2585 132.141 89.8694 132.037 90.4794 131.89C91.8617 131.558 93.153 131.042 94.3369 130.375C94.3369 130.376 94.3369 130.379 94.3369 130.379C110.602 122.144 122.632 107.425 127.342 89.9965L128.292 86.4822C128.772 84.7088 128.75 82.8542 128.271 81.1176C135.195 72.7265 140.591 62.2092 144.305 49.8301C147.273 39.9399 149.178 28.8737 149.966 16.9382C150.394 10.4249 146.749 4.52454 140.68 1.90622ZM11.64 7.14127C14.6862 5.82688 19.1839 5.71324 22.6705 9.33522L48.0169 35.667C49.0769 36.7687 49.8828 38.0504 50.4129 39.4775L51.7776 43.1461C50.8871 43.7593 50.0845 44.4961 49.4031 45.3435L44.7346 51.1515C44.6124 43.5299 42.8491 38.8915 41.2426 36.2342C40.2086 34.5243 37.7412 34.404 36.5165 35.9863C36.4994 36.0085 36.4824 36.0304 36.4653 36.0526C35.7643 36.9582 35.6723 38.1961 36.2597 39.1772C37.7026 41.5879 39.875 47.3216 38.5223 58.8808L24.8889 75.8413C11.2476 58.1536 6.96575 34.0323 5.81213 16.5687C5.48689 11.612 8.60931 8.44869 11.64 7.14127ZM69.6927 130.711C71.1529 129.961 72.5025 128.957 73.6802 127.711L73.8272 127.555C74.249 127.109 74.6402 126.641 75.0001 126.153C75.3598 126.641 75.7513 127.109 76.1731 127.555L76.3194 127.71C77.4975 128.957 78.847 129.961 80.3072 130.712C78.6395 131.357 76.8477 131.698 75.0001 131.698C73.1523 131.698 71.3604 131.356 69.6927 130.711ZM82.0669 106.254C81.1552 106.543 80.7052 106.741 80.4311 106.876C78.2985 107.923 76.4488 109.424 75.0001 111.241C73.5515 109.424 71.7018 107.923 69.5692 106.876C69.2951 106.741 68.8447 106.543 67.933 106.254H82.0669ZM122.697 85.01L121.747 88.5244C118.493 100.567 111.397 111.186 101.694 118.885C101.916 117.245 101.939 115.59 101.768 113.954C107.028 105.528 114.939 101.189 115.021 101.145C116.422 100.392 116.942 98.6603 116.181 97.2748C115.419 95.8877 113.662 95.3728 112.256 96.1245C111.926 96.3009 105.426 99.8372 99.7405 106.886C97.6826 101.917 97.201 96.3428 97.1887 96.194C97.0659 94.6209 95.6713 93.4449 94.0792 93.5658C92.4849 93.6874 91.2923 95.0611 91.4155 96.6342C91.4384 96.9259 92.0065 103.85 94.7709 109.952C96.2224 113.157 96.4903 116.802 95.5249 120.214C94.6541 123.293 92.2555 125.582 89.1086 126.339C85.9624 127.096 82.764 126.152 80.5549 123.814L80.4086 123.659C78.8837 122.045 78.0039 119.97 77.9054 117.776C78.7608 115.268 80.6016 113.174 83.0111 111.991C83.0266 111.983 83.4029 111.802 84.7489 111.423C87.1536 110.745 88.8332 108.551 88.8332 106.087C88.8332 103.993 87.65 102.167 85.909 101.223L84.0216 84.6678C83.8427 83.0998 82.4079 81.9727 80.821 82.1482C79.2321 82.3247 78.0888 83.7385 78.2673 85.3065L80.0042 100.54H69.9958L71.7326 85.3065C71.9115 83.7388 70.7682 82.3247 69.179 82.1482C67.5904 81.9727 66.1569 83.1002 65.9784 84.6678L64.091 101.223C62.3499 102.167 61.167 103.993 61.167 106.087C61.167 108.551 62.8466 110.745 65.2513 111.423C66.597 111.802 66.9737 111.983 66.9892 111.991C69.3984 113.174 71.2391 115.268 72.0949 117.776C71.9964 119.97 71.1166 122.045 69.592 123.659L69.445 123.814C67.2362 126.152 64.0385 127.096 60.8917 126.339C57.7445 125.582 55.3459 123.292 54.4754 120.214C53.5099 116.801 53.7779 113.157 55.2294 109.952C57.9935 103.849 58.5619 96.9256 58.5848 96.6339C58.708 95.0608 57.5154 93.6871 55.9211 93.5655C54.328 93.4436 52.9344 94.6206 52.8112 96.1937C52.8067 96.2524 52.3463 101.851 50.2592 106.886C44.5741 99.8369 38.0732 96.3006 37.7431 96.1241C36.3398 95.3735 34.5869 95.887 33.8232 97.2706C33.0595 98.6542 33.5777 100.388 34.9784 101.144C35.0601 101.188 42.9711 105.527 48.2315 113.954C48.0603 115.589 48.0832 117.245 48.3052 118.885C38.602 111.186 31.5066 100.567 28.252 88.5238L27.302 85.0094C26.925 83.614 27.2425 82.1054 28.1523 80.9738L53.9394 48.8935C54.5558 48.1266 55.3719 47.541 56.3004 47.1988C61.4109 45.4308 66.7408 44.4151 72.1042 44.1456V65.3074C72.1042 66.8849 73.4003 68.1641 74.9995 68.1641C76.5987 68.1641 77.8948 66.8849 77.8948 65.3074V44.1456C83.2579 44.4151 88.5878 45.4308 93.6983 47.1985C94.6271 47.5407 95.4432 48.1266 96.0596 48.8931L121.847 80.9738C122.757 82.1057 123.074 83.6144 122.697 85.01ZM144.188 16.5677C142.163 47.2204 133.066 65.5055 125.115 75.8448L111.478 58.8805C110.138 47.4318 112.257 41.6978 113.699 39.247C114.305 38.2183 114.216 36.9312 113.484 35.9856C112.259 34.4034 109.792 34.524 108.758 36.2339C107.151 38.8912 105.388 43.5295 105.266 51.1512L100.597 45.3432C99.9161 44.4957 99.1138 43.7593 98.2233 43.1461L99.5883 39.4759C100.118 38.0501 100.924 36.7687 101.983 35.6673L127.33 9.3349C130.816 5.71261 135.314 5.82688 138.361 7.14096C141.391 8.44869 144.513 11.612 144.188 16.5677Z" fill="#0066CC"/>
<path d="M113.115 76.3092L110.329 75.1947C103.678 72.5342 96.2134 73.8039 90.8487 78.5088C90.2568 79.0278 89.6031 79.0313 89.2659 78.9872C88.9291 78.9431 88.2989 78.7713 87.8649 78.1175L84.8532 73.582C83.9769 72.2622 82.1821 71.8934 80.8448 72.758C79.5072 73.6226 79.1334 75.3931 80.0097 76.7129L83.0214 81.2487C83.9926 82.711 85.429 83.7861 87.0832 84.326L86.9378 87.7233C86.8812 89.0472 87.7549 90.2359 89.0482 90.5942L93.8794 91.9324C95.1627 92.2879 96.4698 92.4628 97.7678 92.4628C100.682 92.4628 103.551 91.5811 105.997 89.881C108.835 87.9096 110.811 85.0402 111.639 81.7845C112.919 81.9569 114.203 81.2655 114.711 80.0299C115.311 78.5675 114.597 76.9018 113.115 76.3092ZM102.663 85.2097C100.556 86.6733 97.9248 87.1189 95.4442 86.4317L92.8198 85.7048L92.8944 83.9604C93.5407 83.6541 94.1484 83.2592 94.6959 82.779C97.8682 79.9965 102.103 78.9599 106.139 79.8699C105.735 82.0216 104.502 83.9318 102.663 85.2097Z" fill="#0066CC"/>
<path d="M82.1513 59.7597C82.3929 61.1515 83.6172 62.1342 85.0015 62.1342C85.164 62.1342 85.3287 62.1206 85.494 62.0927C87.07 61.826 88.1287 60.3494 87.8585 58.7944L85.9283 47.6851C85.6581 46.1301 84.1596 45.0855 82.5856 45.3521C81.0095 45.6187 79.9508 47.0953 80.2211 48.6503L82.1513 59.7597Z" fill="#0066CC"/>
</svg>
