<svg width="150" height="148" viewBox="0 0 150 148" fill="none" xmlns="http://www.w3.org/2000/svg">
<g clip-path="url(#clip0_8_60)">
<path d="M52.4857 71.9857C58.0099 71.9857 62.4871 67.5679 62.4871 62.1176C62.4871 56.6672 58.0096 52.2496 52.4857 52.2496C46.9619 52.2496 42.4844 56.6674 42.4844 62.1176C42.4844 67.5679 46.9619 71.9857 52.4857 71.9857ZM52.4857 57.1835C55.248 57.1835 57.4866 59.3923 57.4866 62.1176C57.4866 64.843 55.248 67.0518 52.4857 67.0518C49.7235 67.0518 47.4849 64.843 47.4849 62.1176C47.4852 59.3923 49.7235 57.1835 52.4857 57.1835Z" fill="#0066CC"/>
<path d="M97.4923 52.2493C91.9682 52.2493 87.491 56.6672 87.491 62.1174C87.491 67.5679 91.9685 71.9854 97.4923 71.9854C103.016 71.9854 107.494 67.5676 107.494 62.1174C107.494 56.6672 103.016 52.2493 97.4923 52.2493ZM97.4923 67.0515C94.7301 67.0515 92.4915 64.8427 92.4915 62.1174C92.4915 59.392 94.7301 57.1832 97.4923 57.1832C100.255 57.1832 102.493 59.392 102.493 62.1174C102.493 64.8427 100.255 67.0515 97.4923 67.0515Z" fill="#0066CC"/>
<path d="M106.247 101.922C105.052 101.239 103.522 101.641 102.83 102.82C97.0086 112.736 86.6439 118.859 74.9894 118.859C63.3348 118.859 52.9701 112.736 47.1486 102.82C46.4565 101.641 44.9267 101.239 43.7318 101.922C42.5369 102.605 42.1293 104.114 42.8214 105.293C49.522 116.706 61.5182 123.793 74.9894 123.793C88.4606 123.793 100.457 116.706 107.157 105.293C107.849 104.115 107.442 102.605 106.247 101.922Z" fill="#0066CC"/>
<path d="M74.989 96.6558C80.3503 96.6558 84.9904 93.604 84.9904 89.2548C84.9904 84.9055 80.3503 81.8537 74.989 81.8537C69.6278 81.8537 64.9877 84.9055 64.9877 89.2548C64.9877 93.604 69.6278 96.6558 74.989 96.6558ZM74.989 86.7878C77.9148 86.7878 79.9899 88.1524 79.9899 89.2548C79.9899 90.3571 77.9151 91.7217 74.989 91.7217C72.0633 91.7217 69.9882 90.3571 69.9882 89.2548C69.9882 88.1524 72.0633 86.7878 74.989 86.7878Z" fill="#0066CC"/>
<path d="M145.918 26.2423C140.53 15.6096 127.424 11.2994 116.647 16.6157L108.781 20.4964C106.353 21.6944 104.397 23.4074 102.951 25.4181C98.7254 23.5392 94.2672 22.1888 89.6868 21.3001C89.3384 21.2455 88.901 21.1844 88.2956 21.1064C87.2941 20.9774 86.1818 20.8488 84.9872 20.7285C81.7362 20.4018 78.4914 20.1983 75.4444 20.1795C75.2173 20.1784 75.2173 20.1784 74.9899 20.1781C74.7661 20.1784 74.7661 20.1784 74.5425 20.1795C71.4926 20.1983 68.2442 20.4016 64.9903 20.7285C63.7957 20.8485 62.6832 20.9774 61.6816 21.1064C61.0763 21.1844 60.6388 21.2454 60.3977 21.2816C55.7408 22.1816 51.2686 23.5354 47.0384 25.4149C45.5933 23.4106 43.6418 21.7031 41.2192 20.5079L33.353 16.6273C22.5763 11.3109 9.47048 15.6212 4.08199 26.2542C-0.290621 34.8805 -1.18753 44.8243 1.57176 54.0785L6.4299 70.378C7.91722 75.3662 12.9828 77.7363 17.4823 76.6807C17.4823 76.7299 17.4811 76.7793 17.4811 76.8285C17.4811 101.157 26.4959 117.076 41.9502 125.905C52.0208 131.658 62.1009 133.464 73.2805 133.646C74.4016 133.666 75.5443 133.666 76.6994 133.646C87.8772 133.463 97.958 131.658 108.029 125.905C123.483 117.076 132.498 101.158 132.498 76.8285C132.498 76.7744 132.498 76.7198 132.498 76.6657C137.002 77.7334 142.081 75.3627 143.571 70.3667L148.429 54.0667C151.188 44.8127 150.291 34.8689 145.918 26.2423ZM114.995 62.1171C114.995 71.6549 107.159 79.3862 97.4921 79.3862C87.8265 79.3862 79.9896 71.6538 79.9896 62.1171C79.9896 52.5804 87.8265 44.848 97.4921 44.848C100.347 44.848 103.102 45.5282 105.584 46.8098L114.361 57.5087C114.78 58.9994 114.995 60.5441 114.995 62.1171ZM11.2274 68.9856L6.36924 52.6862C3.96684 44.6288 4.74742 35.9713 8.55452 28.4612C12.7077 20.2654 22.8101 16.943 31.1164 21.0408L38.9826 24.9214C41.1102 25.9712 42.7127 27.5948 43.7244 29.4899C43.7528 29.5624 43.7839 29.6344 43.8199 29.7055C45.3501 32.7368 45.3597 36.2529 43.8618 39.2414C43.8478 39.2694 43.8323 39.2972 43.8176 39.3255C43.7253 39.5056 43.6266 39.6837 43.5231 39.8598C43.4885 39.9184 43.4534 39.9771 43.4173 40.0355C43.3265 40.1836 43.2307 40.3296 43.132 40.4741C43.0892 40.5368 43.0479 40.6002 43.0033 40.662C42.88 40.8346 42.7505 41.0046 42.6157 41.1717C42.5975 41.194 42.5814 41.2171 42.5632 41.2394L18.6819 70.3467C18.5512 70.4543 18.4361 70.5552 18.3083 70.6859C18.211 70.7853 18.124 70.8923 18.0458 71.005C15.7858 72.9128 12.1161 71.966 11.2274 68.9856ZM105.523 121.635C96.3608 126.869 87.0149 128.543 76.6132 128.713C75.515 128.732 74.4323 128.732 73.3672 128.713C62.963 128.543 53.6177 126.869 44.4558 121.635C30.5685 113.701 22.4817 99.4211 22.4817 76.8285C22.4817 75.7429 22.5077 74.6425 22.5587 73.4641L46.4509 44.3429C46.5028 44.2796 46.5491 44.2131 46.5997 44.1492C46.7506 43.9596 46.9004 43.7693 47.041 43.5753C47.0958 43.4996 47.1456 43.4212 47.1987 43.3446C47.3329 43.1524 47.4656 42.9595 47.5895 42.7635C47.6303 42.6993 47.6672 42.6334 47.7067 42.5687C47.8383 42.3542 47.9661 42.1385 48.0859 41.9202C48.1134 41.8699 48.1389 41.8187 48.1659 41.7679C48.2934 41.5296 48.4147 41.2897 48.5284 41.0471C48.5448 41.0118 48.5603 40.976 48.5767 40.9407C48.6974 40.6782 48.8102 40.414 48.9151 40.1477C48.923 40.1278 48.9304 40.1078 48.9383 40.0879C49.0499 39.8008 49.1522 39.512 49.2456 39.2214C49.2465 39.2188 49.2474 39.2162 49.2483 39.2136C50.2372 36.1271 50.207 32.8504 49.2571 29.8385C53.0706 28.1603 57.1092 26.9443 61.2538 26.1414C61.3552 26.1287 61.7584 26.0721 62.328 25.9989C63.2847 25.8758 64.3507 25.7523 65.4967 25.6372C68.6043 25.3247 71.7003 25.131 74.573 25.1134C74.7813 25.1122 74.7813 25.1122 74.9894 25.1122C75.2006 25.1125 75.2006 25.1125 75.4122 25.1137C78.2819 25.1316 81.375 25.3253 84.4797 25.6375C85.6257 25.7526 86.6914 25.876 87.6481 25.9992C88.2177 26.0726 88.6209 26.129 88.8286 26.1599C92.9003 26.9521 96.9269 28.1658 100.737 29.8443C99.7916 32.8539 99.7641 36.1268 100.754 39.2096C100.754 39.211 100.755 39.2127 100.755 39.2142C100.85 39.5091 100.954 39.8016 101.067 40.0925C101.072 40.1055 101.077 40.1185 101.082 40.1315C101.091 40.1549 101.1 40.1786 101.109 40.2021C99.9226 40.0115 98.7136 39.9138 97.4915 39.9138C85.064 39.9138 74.9882 49.8553 74.9882 62.1171C74.9882 74.3789 85.064 84.3203 97.4915 84.3203C109.192 84.3203 118.802 75.5101 119.889 64.2475L127.417 73.4228C127.47 74.6359 127.497 75.7397 127.497 76.8285C127.497 99.4214 119.411 113.701 105.523 121.635ZM143.631 52.6743L138.773 68.9744C137.882 71.9628 134.196 72.9073 131.937 70.979C131.858 70.8639 131.769 70.7544 131.67 70.6532C131.548 70.5286 131.44 70.4326 131.316 70.3314C131.315 70.3303 131.218 70.212 131.038 69.9932L118.575 54.8021C118.571 54.7972 118.567 54.792 118.563 54.7871L109.9 44.2281C108.385 42.3816 107.438 41.2264 107.438 41.2264C107.277 41.0306 107.126 40.8303 106.982 40.627C106.954 40.5886 106.929 40.5496 106.902 40.5111C106.785 40.3417 106.673 40.1705 106.567 39.9965C106.542 39.9554 106.517 39.9141 106.493 39.8728C106.377 39.6776 106.267 39.4802 106.166 39.2801C106.159 39.268 106.153 39.2561 106.146 39.244C104.642 36.2569 104.647 32.7411 106.174 29.7078C106.21 29.6359 106.242 29.5624 106.27 29.489C107.282 27.5893 108.886 25.9616 111.018 24.9099L118.884 21.0292C127.191 16.9314 137.293 20.2541 141.446 28.4494C145.253 35.9597 146.033 44.6173 143.631 52.6743Z" fill="#0066CC"/>
</g>
<defs>
<clipPath id="clip0_8_60">
<rect width="150" height="148" fill="white"/>
</clipPath>
</defs>
</svg>
